<?xml version="1.0" encoding="UTF-8" standalone="no"?>
<svg width="1280" height="780" xmlns="http://www.w3.org/2000/svg">
  <!-- 背景 -->
  <rect width="1280" height="780" fill="#f5f5f5"/>
  
  <!-- 标题区域 -->
  <rect x="0" y="0" width="1280" height="110" fill="#FF5722"/>
  <text x="640" y="55" font-family="Arial" font-size="36" font-weight="bold" fill="white" text-anchor="middle">美团外卖粉丝群运营指南</text>
  <text x="640" y="95" font-family="Arial" font-size="22" fill="white" text-anchor="middle">建立私域流量池，提高用户粘性与复购率</text>
  
  <!-- 粉丝群概述区域 -->
  <rect x="40" y="130" width="1200" height="120" rx="15" ry="15" fill="#FFC107"/>
  <text x="640" y="165" font-family="Arial" font-size="28" font-weight="bold" fill="#333" text-anchor="middle">粉丝群价值与目标</text>
  <line x1="300" y1="180" x2="980" y2="180" stroke="#333" stroke-width="2"/>
  
  <text x="90" y="210" font-family="Arial" font-size="16" fill="#333">• 建立私域流量池，减少获客成本</text>
  <text x="90" y="240" font-family="Arial" font-size="16" fill="#333">• 提高用户忠诚度，增加复购频次</text>
  
  <text x="450" y="210" font-family="Arial" font-size="16" fill="#333">• 精准营销，提高转化率</text>
  <text x="450" y="240" font-family="Arial" font-size="16" fill="#333">• 获取用户反馈，优化产品与服务</text>
  
  <text x="810" y="210" font-family="Arial" font-size="16" fill="#333">• 增强品牌形象，提升用户黏性</text>
  <text x="810" y="240" font-family="Arial" font-size="16" fill="#333">• 降低营销成本，提高ROI</text>
  
  <!-- 粉丝群建立策略区域 -->
  <rect x="40" y="270" width="580" height="190" rx="15" ry="15" fill="#3F51B5"/>
  <text x="330" y="300" font-family="Arial" font-size="24" font-weight="bold" fill="white" text-anchor="middle">粉丝群建立策略</text>
  <line x1="130" y1="315" x2="530" y2="315" stroke="white" stroke-width="2"/>
  
  <!-- 左侧子卡片1：用户引流渠道 -->
  <rect x="60" y="330" width="260" height="110" rx="10" ry="10" fill="#7986CB"/>
  <text x="190" y="355" font-family="Arial" font-size="20" font-weight="bold" fill="white" text-anchor="middle">用户引流渠道</text>
  <text x="70" y="385" font-family="Arial" font-size="16" fill="white">• 订单后评价页引导关注</text>
  <text x="70" y="415" font-family="Arial" font-size="16" fill="white">• 优惠券/活动引导添加客服</text>
  <text x="70" y="445" font-family="Arial" font-size="16" fill="white">• 线下扫码关注有礼</text>
  
  <!-- 左侧子卡片2：入群激励机制 -->
  <rect x="340" y="330" width="260" height="110" rx="10" ry="10" fill="#7986CB"/>
  <text x="470" y="355" font-family="Arial" font-size="20" font-weight="bold" fill="white" text-anchor="middle">入群激励机制</text>
  <text x="350" y="385" font-family="Arial" font-size="16" fill="white">• 新人专享优惠券礼包</text>
  <text x="350" y="415" font-family="Arial" font-size="16" fill="white">• 邀请好友返利机制</text>
  <text x="350" y="445" font-family="Arial" font-size="16" fill="white">• 会员特权与专属服务</text>
  
  <!-- 粉丝群分层管理区域 -->
  <rect x="660" y="270" width="580" height="190" rx="15" ry="15" fill="#9C27B0"/>
  <text x="950" y="300" font-family="Arial" font-size="24" font-weight="bold" fill="white" text-anchor="middle">粉丝群分层管理</text>
  <line x1="750" y1="315" x2="1150" y2="315" stroke="white" stroke-width="2"/>
  
  <!-- 右侧子卡片1：粉丝价值分层 -->
  <rect x="680" y="330" width="260" height="110" rx="10" ry="10" fill="#BA68C8"/>
  <text x="810" y="355" font-family="Arial" font-size="20" font-weight="bold" fill="white" text-anchor="middle">粉丝价值分层</text>
  <text x="690" y="385" font-family="Arial" font-size="16" fill="white">• 高价值粉丝(月均消费>300元)</text>
  <text x="690" y="415" font-family="Arial" font-size="16" fill="white">• 中价值粉丝(月均100-300元)</text>
  <text x="690" y="445" font-family="Arial" font-size="16" fill="white">• 低价值粉丝(月均&lt;100元)</text>
  
  <!-- 右侧子卡片2：分层运营策略 -->
  <rect x="960" y="330" width="260" height="110" rx="10" ry="10" fill="#BA68C8"/>
  <text x="1090" y="355" font-family="Arial" font-size="20" font-weight="bold" fill="white" text-anchor="middle">分层运营策略</text>
  <text x="970" y="385" font-family="Arial" font-size="16" fill="white">• 高价值：专属会员特权</text>
  <text x="970" y="415" font-family="Arial" font-size="16" fill="white">• 中价值：阶梯式成长激励</text>
  <text x="970" y="445" font-family="Arial" font-size="16" fill="white">• 低价值：活跃度提升方案</text>
  
  <!-- 粉丝内容运营区域 -->
  <rect x="40" y="480" width="580" height="190" rx="15" ry="15" fill="#4CAF50"/>
  <text x="330" y="510" font-family="Arial" font-size="24" font-weight="bold" fill="white" text-anchor="middle">粉丝内容运营</text>
  <line x1="130" y1="525" x2="530" y2="525" stroke="white" stroke-width="2"/>
  
  <!-- 左下方子卡片1：内容类型 -->
  <rect x="60" y="540" width="260" height="110" rx="10" ry="10" fill="#66BB6A"/>
  <text x="190" y="565" font-family="Arial" font-size="20" font-weight="bold" fill="white" text-anchor="middle">内容类型</text>
  <text x="70" y="595" font-family="Arial" font-size="16" fill="white">• 产品更新与新品预告</text>
  <text x="70" y="625" font-family="Arial" font-size="16" fill="white">• 限时优惠与秒杀活动</text>
  <text x="70" y="655" font-family="Arial" font-size="16" fill="white">• 用户分享与互动话题</text>
  
  <!-- 左下方子卡片2：发布频率 -->
  <rect x="340" y="540" width="260" height="110" rx="10" ry="10" fill="#66BB6A"/>
  <text x="470" y="565" font-family="Arial" font-size="20" font-weight="bold" fill="white" text-anchor="middle">发布频率</text>
  <text x="350" y="595" font-family="Arial" font-size="16" fill="white">• 每日常规互动1-2次</text>
  <text x="350" y="625" font-family="Arial" font-size="16" fill="white">• 每周主题活动1次</text>
  <text x="350" y="655" font-family="Arial" font-size="16" fill="white">• 每月大型活动1次</text>
  
  <!-- 粉丝活动策划区域 -->
  <rect x="660" y="480" width="580" height="190" rx="15" ry="15" fill="#FF5722"/>
  <text x="950" y="510" font-family="Arial" font-size="24" font-weight="bold" fill="white" text-anchor="middle">粉丝活动策划</text>
  <line x1="750" y1="525" x2="1150" y2="525" stroke="white" stroke-width="2"/>
  
  <!-- 右下方子卡片1：活动类型 -->
  <rect x="680" y="540" width="260" height="110" rx="10" ry="10" fill="#FF8A65"/>
  <text x="810" y="565" font-family="Arial" font-size="20" font-weight="bold" fill="white" text-anchor="middle">活动类型</text>
  <text x="690" y="595" font-family="Arial" font-size="16" fill="white">• 抽奖与签到活动</text>
  <text x="690" y="625" font-family="Arial" font-size="16" fill="white">• 积分兑换与任务奖励</text>
  <text x="690" y="655" font-family="Arial" font-size="16" fill="white">• 社群团购与限时优惠</text>
  
  <!-- 右下方子卡片2：活动效果 -->
  <rect x="960" y="540" width="260" height="110" rx="10" ry="10" fill="#FF8A65"/>
  <text x="1090" y="565" font-family="Arial" font-size="20" font-weight="bold" fill="white" text-anchor="middle">活动效果评估</text>
  <text x="970" y="595" font-family="Arial" font-size="16" fill="white">• 参与率与转化率</text>
  <text x="970" y="625" font-family="Arial" font-size="16" fill="white">• 用户活跃度与留存率</text>
  <text x="970" y="655" font-family="Arial" font-size="16" fill="white">• 复购率与客单价变化</text>
  
  <!-- 最佳实践流程 -->
  <rect x="40" y="690" width="1200" height="40" rx="10" ry="10" fill="#FFA000"/>
  
  <circle cx="140" cy="710" r="15" fill="#333"/>
  <text x="140" y="715" font-family="Arial" font-size="12" font-weight="bold" fill="white" text-anchor="middle">1</text>
  <text x="140" y="740" font-family="Arial" font-size="14" fill="#333" text-anchor="middle">筛选目标用户</text>
  
  <line x1="190" y1="710" x2="240" y2="710" stroke="#333" stroke-width="2"/>
  
  <circle cx="290" cy="710" r="15" fill="#333"/>
  <text x="290" y="715" font-family="Arial" font-size="12" font-weight="bold" fill="white" text-anchor="middle">2</text>
  <text x="290" y="740" font-family="Arial" font-size="14" fill="#333" text-anchor="middle">设计入群引导</text>
  
  <line x1="340" y1="710" x2="390" y2="710" stroke="#333" stroke-width="2"/>
  
  <circle cx="440" cy="710" r="15" fill="#333"/>
  <text x="440" y="715" font-family="Arial" font-size="12" font-weight="bold" fill="white" text-anchor="middle">3</text>
  <text x="440" y="740" font-family="Arial" font-size="14" fill="#333" text-anchor="middle">建立激励机制</text>
  
  <line x1="490" y1="710" x2="540" y2="710" stroke="#333" stroke-width="2"/>
  
  <circle cx="590" cy="710" r="15" fill="#333"/>
  <text x="590" y="715" font-family="Arial" font-size="12" font-weight="bold" fill="white" text-anchor="middle">4</text>
  <text x="590" y="740" font-family="Arial" font-size="14" fill="#333" text-anchor="middle">内容规划</text>
  
  <line x1="640" y1="710" x2="690" y2="710" stroke="#333" stroke-width="2"/>
  
  <circle cx="740" cy="710" r="15" fill="#333"/>
  <text x="740" y="715" font-family="Arial" font-size="12" font-weight="bold" fill="white" text-anchor="middle">5</text>
  <text x="740" y="740" font-family="Arial" font-size="14" fill="#333" text-anchor="middle">活动执行</text>
  
  <line x1="790" y1="710" x2="840" y2="710" stroke="#333" stroke-width="2"/>
  
  <circle cx="890" cy="710" r="15" fill="#333"/>
  <text x="890" y="715" font-family="Arial" font-size="12" font-weight="bold" fill="white" text-anchor="middle">6</text>
  <text x="890" y="740" font-family="Arial" font-size="14" fill="#333" text-anchor="middle">数据分析</text>
  
  <line x1="940" y1="710" x2="990" y2="710" stroke="#333" stroke-width="2"/>
  
  <circle cx="1040" cy="710" r="15" fill="#333"/>
  <text x="1040" y="715" font-family="Arial" font-size="12" font-weight="bold" fill="white" text-anchor="middle">7</text>
  <text x="1040" y="740" font-family="Arial" font-size="14" fill="#333" text-anchor="middle">优化迭代</text>
  
  <!-- 底部区域 -->
  <rect x="40" y="760" width="1200" height="30" rx="10" ry="10" fill="#29B6F6"/>
  <text x="640" y="778" font-family="Arial" font-size="18" font-weight="bold" fill="white" text-anchor="middle">持续运营粉丝群，建立稳定流量池，实现高ROI的可持续增长</text>
  
</svg>